<svg width="264" height="264" viewBox="0 0 264 264" fill="none" xmlns="http://www.w3.org/2000/svg">
<g filter="url(#filter0_d_313_32)">
<mask id="path-1-inside-1_313_32" fill="white">
<path fill-rule="evenodd" clip-rule="evenodd" d="M107.484 211.024C138.936 222.058 175.32 215.003 200.465 189.858C235.417 154.906 235.417 98.238 200.465 63.2861C165.513 28.3341 108.845 28.3341 73.8927 63.2861C48.7478 88.4309 41.6925 124.815 52.7267 156.267L137.532 126.219L107.484 211.024Z"/>
</mask>
<path fill-rule="evenodd" clip-rule="evenodd" d="M107.484 211.024C138.936 222.058 175.32 215.003 200.465 189.858C235.417 154.906 235.417 98.238 200.465 63.2861C165.513 28.3341 108.845 28.3341 73.8927 63.2861C48.7478 88.4309 41.6925 124.815 52.7267 156.267L137.532 126.219L107.484 211.024Z" fill="#E26262"/>
<path d="M107.484 211.024L105.598 210.356L104.928 212.247L106.821 212.911L107.484 211.024ZM52.7267 156.267L50.8394 156.929L51.5036 158.822L53.3946 158.152L52.7267 156.267ZM137.532 126.219L139.417 126.887L140.818 122.932L136.864 124.333L137.532 126.219ZM199.051 188.444C174.47 213.025 138.9 219.926 108.146 209.137L106.821 212.911C138.972 224.19 176.17 216.981 201.879 191.272L199.051 188.444ZM199.051 64.7003C233.221 98.8711 233.221 154.273 199.051 188.444L201.879 191.272C237.612 155.539 237.612 97.6048 201.879 61.8718L199.051 64.7003ZM75.3069 64.7003C109.478 30.5294 164.88 30.5294 199.051 64.7003L201.879 61.8718C166.146 26.1389 108.211 26.1389 72.4784 61.8718L75.3069 64.7003ZM54.6139 155.605C43.8245 124.851 50.726 89.2811 75.3069 64.7003L72.4784 61.8718C46.7696 87.5807 39.5604 124.779 50.8394 156.929L54.6139 155.605ZM53.3946 158.152L138.2 128.104L136.864 124.333L52.0587 154.382L53.3946 158.152ZM135.647 125.551L105.598 210.356L109.369 211.692L139.417 126.887L135.647 125.551Z" fill="black" mask="url(#path-1-inside-1_313_32)"/>
<path d="M128.131 139.45L96.4205 228.945C95.6838 231.024 93.031 231.624 91.4714 230.064L33.6866 172.279C32.127 170.72 32.727 168.067 34.806 167.33L124.301 135.62C126.68 134.777 128.974 137.07 128.131 139.45Z" fill="#92EBAC" stroke="#0C0C0C" stroke-width="2"/>
<mask id="path-4-inside-2_313_32" fill="white">
<path fill-rule="evenodd" clip-rule="evenodd" d="M167.28 42.2635L137.532 126.219L221.487 96.4712C217.171 84.356 210.164 72.9849 200.465 63.286C190.766 53.5871 179.395 46.5796 167.28 42.2635Z"/>
</mask>
<path fill-rule="evenodd" clip-rule="evenodd" d="M167.28 42.2635L137.532 126.219L221.487 96.4712C217.171 84.356 210.164 72.9849 200.465 63.286C190.766 53.5871 179.395 46.5796 167.28 42.2635Z" fill="#EF8D60"/>
<path d="M137.532 126.219L135.647 125.551L134.246 129.505L138.2 128.104L137.532 126.219ZM167.28 42.2635L167.951 40.3794L166.063 39.7071L165.394 41.5955L167.28 42.2635ZM221.487 96.4712L222.155 98.3564L224.044 97.6873L223.371 95.8L221.487 96.4712ZM139.417 126.886L169.165 42.9314L165.394 41.5955L135.647 125.551L139.417 126.886ZM220.819 94.586L136.864 124.333L138.2 128.104L222.155 98.3564L220.819 94.586ZM199.051 64.7002C208.535 74.185 215.385 85.3007 219.603 97.1424L223.371 95.8C218.958 83.4112 211.792 71.7848 201.879 61.8718L199.051 64.7002ZM166.608 44.1475C178.45 48.3662 189.566 55.2155 199.051 64.7002L201.879 61.8718C191.966 51.9588 180.339 44.793 167.951 40.3794L166.608 44.1475Z" fill="black" mask="url(#path-4-inside-2_313_32)"/>
<mask id="path-6-inside-3_313_32" fill="white">
<path fill-rule="evenodd" clip-rule="evenodd" d="M221.607 156.553L137.652 126.806L167.399 210.761C179.514 206.445 190.885 199.437 200.584 189.738C210.283 180.04 217.291 168.668 221.607 156.553Z"/>
</mask>
<path fill-rule="evenodd" clip-rule="evenodd" d="M221.607 156.553L137.652 126.806L167.399 210.761C179.514 206.445 190.885 199.437 200.584 189.738C210.283 180.04 217.291 168.668 221.607 156.553Z" fill="#EF8D60"/>
<path d="M137.652 126.806L138.32 124.921L134.366 123.52L135.767 127.474L137.652 126.806ZM221.607 156.553L223.491 157.224L224.163 155.337L222.275 154.668L221.607 156.553ZM167.399 210.761L165.514 211.429L166.183 213.317L168.07 212.645L167.399 210.761ZM136.984 128.691L220.939 158.438L222.275 154.668L138.32 124.921L136.984 128.691ZM169.284 210.093L139.537 126.138L135.767 127.474L165.514 211.429L169.284 210.093ZM199.17 188.324C189.685 197.809 178.57 204.658 166.728 208.877L168.07 212.645C180.459 208.231 192.086 201.066 201.999 191.153L199.17 188.324ZM219.723 155.882C215.504 167.724 208.655 178.839 199.17 188.324L201.999 191.153C211.912 181.24 219.077 169.613 223.491 157.224L219.723 155.882Z" fill="black" mask="url(#path-6-inside-3_313_32)"/>
<mask id="path-8-inside-4_313_32" fill="white">
<path fill-rule="evenodd" clip-rule="evenodd" d="M52.9898 96.3513L136.945 126.099L107.198 42.1436C95.0823 46.4597 83.7112 53.4673 74.0123 63.1661C64.3134 72.865 57.3059 84.2361 52.9898 96.3513Z"/>
</mask>
<path fill-rule="evenodd" clip-rule="evenodd" d="M52.9898 96.3513L136.945 126.099L107.198 42.1436C95.0823 46.4597 83.7112 53.4673 74.0123 63.1661C64.3134 72.865 57.3059 84.2361 52.9898 96.3513Z" fill="#EF8D60"/>
<path d="M136.945 126.099L136.277 127.984L140.231 129.385L138.83 125.431L136.945 126.099ZM52.9898 96.3513L51.1058 95.6801L50.4334 97.5674L52.3218 98.2365L52.9898 96.3513ZM107.198 42.1436L109.083 41.4756L108.414 39.5872L106.526 40.2596L107.198 42.1436ZM137.613 124.213L53.6577 94.4662L52.3218 98.2365L136.277 127.984L137.613 124.213ZM105.312 42.8115L135.06 126.767L138.83 125.431L109.083 41.4756L105.312 42.8115ZM75.4265 64.5804C84.9113 55.0956 96.027 48.2463 107.869 44.0276L106.526 40.2596C94.1376 44.6732 82.5112 51.8389 72.5981 61.7519L75.4265 64.5804ZM54.8738 97.0225C59.0925 85.1808 65.9418 74.0651 75.4265 64.5804L72.5981 61.7519C62.6851 71.665 55.5194 83.2914 51.1058 95.6801L54.8738 97.0225Z" fill="black" mask="url(#path-8-inside-4_313_32)"/>
</g>
<defs>
<filter id="filter0_d_313_32" x="27.8064" y="37.072" width="202.872" height="202.872" filterUnits="userSpaceOnUse" color-interpolation-filters="sRGB">
<feFlood flood-opacity="0" result="BackgroundImageFix"/>
<feColorMatrix in="SourceAlpha" type="matrix" values="0 0 0 0 0 0 0 0 0 0 0 0 0 0 0 0 0 0 127 0" result="hardAlpha"/>
<feOffset dy="4"/>
<feGaussianBlur stdDeviation="2"/>
<feComposite in2="hardAlpha" operator="out"/>
<feColorMatrix type="matrix" values="0 0 0 0 0 0 0 0 0 0 0 0 0 0 0 0 0 0 0.4 0"/>
<feBlend mode="normal" in2="BackgroundImageFix" result="effect1_dropShadow_313_32"/>
<feBlend mode="normal" in="SourceGraphic" in2="effect1_dropShadow_313_32" result="shape"/>
</filter>
</defs>
</svg>
